<?xml version="1.0" encoding="UTF-8" standalone="no"?>
<svg xmlns="http://www.w3.org/2000/svg" version="1.1" width="38" height="2464">
<g style="stroke:black;stroke-width:2">
<rect x="0" y="0" width="38" height="28" style="fill:none;stroke:black" />
<rect x="0" y="28" width="38" height="28" style="fill:none;stroke:black" />
<rect x="0" y="56" width="38" height="28" />
<rect x="0" y="84" width="38" height="28" style="fill:none;stroke:black" />
<rect x="0" y="112" width="38" height="28" />
<rect x="0" y="140" width="38" height="28" style="fill:none;stroke:black" />
<rect x="0" y="168" width="38" height="28" />
<rect x="0" y="196" width="38" height="28" style="fill:none;stroke:black" />
<rect x="0" y="224" width="38" height="28" style="fill:none;stroke:black" />
<rect x="0" y="252" width="38" height="28" />
<rect x="0" y="280" width="38" height="28" style="fill:none;stroke:black" />
<rect x="0" y="308" width="38" height="28" />
<rect x="0" y="336" width="38" height="28" style="fill:none;stroke:black" />
<rect x="0" y="364" width="38" height="28" style="fill:none;stroke:black" />
<rect x="0" y="392" width="38" height="28" />
<rect x="0" y="420" width="38" height="28" style="fill:none;stroke:black" />
<rect x="0" y="448" width="38" height="28" />
<rect x="0" y="476" width="38" height="28" style="fill:none;stroke:black" />
<rect x="0" y="504" width="38" height="28" />
<rect x="0" y="532" width="38" height="28" style="fill:none;stroke:black" />
<rect x="0" y="560" width="38" height="28" style="fill:none;stroke:black" />
<rect x="0" y="588" width="38" height="28" />
<rect x="0" y="616" width="38" height="28" style="fill:none;stroke:black" />
<rect x="0" y="644" width="38" height="28" />
<rect x="0" y="672" width="38" height="28" style="fill:none;stroke:black" />
<rect x="0" y="700" width="38" height="28" style="fill:none;stroke:black" />
<rect x="0" y="728" width="38" height="28" />
<rect x="0" y="756" width="38" height="28" style="fill:none;stroke:black" />
<rect x="0" y="784" width="38" height="28" />
<rect x="0" y="812" width="38" height="28" style="fill:none;stroke:black" />
<rect x="0" y="840" width="38" height="28" />
<rect x="0" y="868" width="38" height="28" style="fill:none;stroke:black" />
<rect x="0" y="896" width="38" height="28" style="fill:none;stroke:black" />
<rect x="0" y="924" width="38" height="28" />
<rect x="0" y="952" width="38" height="28" style="fill:none;stroke:black" />
<rect x="0" y="980" width="38" height="28" />
<rect x="0" y="1008" width="38" height="28" style="fill:none;stroke:black" />
<rect x="0" y="1036" width="38" height="28" style="fill:none;stroke:black" />
<rect x="0" y="1064" width="38" height="28" />
<rect x="0" y="1092" width="38" height="28" style="fill:none;stroke:black" />
<rect x="0" y="1120" width="38" height="28" />
<rect x="0" y="1148" width="38" height="28" style="fill:none;stroke:black" />
<rect x="0" y="1176" width="38" height="28" />
<rect x="0" y="1204" width="38" height="28" style="fill:none;stroke:black" />
<rect x="0" y="1232" width="38" height="28" style="fill:none;stroke:black" />
<rect x="0" y="1260" width="38" height="28" />
<rect x="0" y="1288" width="38" height="28" style="fill:none;stroke:black" />
<rect x="0" y="1316" width="38" height="28" />
<rect x="0" y="1344" width="38" height="28" style="fill:none;stroke:black" />
<rect x="0" y="1372" width="38" height="28" style="fill:none;stroke:black" />
<rect x="0" y="1400" width="38" height="28" />
<rect x="0" y="1428" width="38" height="28" style="fill:none;stroke:black" />
<rect x="0" y="1456" width="38" height="28" />
<rect x="0" y="1484" width="38" height="28" style="fill:none;stroke:black" />
<rect x="0" y="1512" width="38" height="28" />
<rect x="0" y="1540" width="38" height="28" style="fill:none;stroke:black" />
<rect x="0" y="1568" width="38" height="28" style="fill:none;stroke:black" />
<rect x="0" y="1596" width="38" height="28" />
<rect x="0" y="1624" width="38" height="28" style="fill:none;stroke:black" />
<rect x="0" y="1652" width="38" height="28" />
<rect x="0" y="1680" width="38" height="28" style="fill:none;stroke:black" />
<rect x="0" y="1708" width="38" height="28" style="fill:none;stroke:black" />
<rect x="0" y="1736" width="38" height="28" />
<rect x="0" y="1764" width="38" height="28" style="fill:none;stroke:black" />
<rect x="0" y="1792" width="38" height="28" />
<rect x="0" y="1820" width="38" height="28" style="fill:none;stroke:black" />
<rect x="0" y="1848" width="38" height="28" />
<rect x="0" y="1876" width="38" height="28" style="fill:none;stroke:black" />
<rect x="0" y="1904" width="38" height="28" style="fill:none;stroke:black" />
<rect x="0" y="1932" width="38" height="28" />
<rect x="0" y="1960" width="38" height="28" style="fill:none;stroke:black" />
<rect x="0" y="1988" width="38" height="28" />
<rect x="0" y="2016" width="38" height="28" style="fill:none;stroke:black" />
<rect x="0" y="2044" width="38" height="28" style="fill:none;stroke:black" />
<rect x="0" y="2072" width="38" height="28" />
<rect x="0" y="2100" width="38" height="28" style="fill:none;stroke:black" />
<rect x="0" y="2128" width="38" height="28" />
<rect x="0" y="2156" width="38" height="28" style="fill:none;stroke:black" />
<rect x="0" y="2184" width="38" height="28" />
<rect x="0" y="2212" width="38" height="28" style="fill:none;stroke:black" />
<rect x="0" y="2240" width="38" height="28" style="fill:none;stroke:black" />
<rect x="0" y="2268" width="38" height="28" />
<rect x="0" y="2296" width="38" height="28" style="fill:none;stroke:black" />
<rect x="0" y="2324" width="38" height="28" />
<rect x="0" y="2352" width="38" height="28" style="fill:none;stroke:black" />
<rect x="0" y="2380" width="38" height="28" style="fill:none;stroke:black" />
<rect x="0" y="2408" width="38" height="28" />
<rect x="0" y="2436" width="38" height="28" style="fill:none;stroke:black" />
</g>
<g style="font-size:18px;font-family:monospace">
<text x="8" y="20">C8</text>
<text x="8" y="48">B7</text>
<text x="8" y="104">A7</text>
<text x="8" y="160">G7</text>
<text x="8" y="216">F7</text>
<text x="8" y="244">E7</text>
<text x="8" y="300">D7</text>
<text x="8" y="356">C7</text>
<text x="8" y="384">B6</text>
<text x="8" y="440">A6</text>
<text x="8" y="496">G6</text>
<text x="8" y="552">F6</text>
<text x="8" y="580">E6</text>
<text x="8" y="636">D6</text>
<text x="8" y="692">C6</text>
<text x="8" y="720">B5</text>
<text x="8" y="776">A5</text>
<text x="8" y="832">G5</text>
<text x="8" y="888">F5</text>
<text x="8" y="916">E5</text>
<text x="8" y="972">D5</text>
<text x="8" y="1028">C5</text>
<text x="8" y="1056">B4</text>
<text x="8" y="1112">A4</text>
<text x="8" y="1168">G4</text>
<text x="8" y="1224">F4</text>
<text x="8" y="1252">E4</text>
<text x="8" y="1308">D4</text>
<text x="8" y="1364">C4</text>
<text x="8" y="1392">B3</text>
<text x="8" y="1448">A3</text>
<text x="8" y="1504">G3</text>
<text x="8" y="1560">F3</text>
<text x="8" y="1588">E3</text>
<text x="8" y="1644">D3</text>
<text x="8" y="1700">C3</text>
<text x="8" y="1728">B2</text>
<text x="8" y="1784">A2</text>
<text x="8" y="1840">G2</text>
<text x="8" y="1896">F2</text>
<text x="8" y="1924">E2</text>
<text x="8" y="1980">D2</text>
<text x="8" y="2036">C2</text>
<text x="8" y="2064">B1</text>
<text x="8" y="2120">A1</text>
<text x="8" y="2176">G1</text>
<text x="8" y="2232">F1</text>
<text x="8" y="2260">E1</text>
<text x="8" y="2316">D1</text>
<text x="8" y="2372">C1</text>
<text x="8" y="2400">B0</text>
<text x="8" y="2456">A0</text>
</g>
</svg>
