<?xml version="1.0" encoding="UTF-8" standalone="no"?>
<svg xmlns="http://www.w3.org/2000/svg" version="1.1" width="58" height="2454.4">
<g style="fill:none;stroke:#000">
<rect x="0" y="0" width="58" height="47.2" />
<rect x="0" y="47.2" width="58" height="47.2" />
<rect x="0" y="94.4" width="58" height="47.2" />
<rect x="0" y="141.6" width="58" height="47.2" />
<rect x="0" y="188.8" width="58" height="47.2" />
<rect x="0" y="236.0" width="58" height="47.2" />
<rect x="0" y="283.2" width="58" height="47.2" />
<rect x="0" y="330.4" width="58" height="47.2" />
<rect x="0" y="377.6" width="58" height="47.2" />
<rect x="0" y="424.8" width="58" height="47.2" />
<rect x="0" y="472.0" width="58" height="47.2" />
<rect x="0" y="519.2" width="58" height="47.2" />
<rect x="0" y="566.4" width="58" height="47.2" />
<rect x="0" y="613.6" width="58" height="47.2" />
<rect x="0" y="660.8" width="58" height="47.2" />
<rect x="0" y="708.0" width="58" height="47.2" />
<rect x="0" y="755.2" width="58" height="47.2" />
<rect x="0" y="802.4" width="58" height="47.2" />
<rect x="0" y="849.6" width="58" height="47.2" />
<rect x="0" y="896.8" width="58" height="47.2" />
<rect x="0" y="944.0" width="58" height="47.2" />
<rect x="0" y="991.2" width="58" height="47.2" />
<rect x="0" y="1038.4" width="58" height="47.2" />
<rect x="0" y="1085.6" width="58" height="47.2" />
<rect x="0" y="1132.8" width="58" height="47.2" />
<rect x="0" y="1180.0" width="58" height="47.2" />
<rect x="0" y="1227.2" width="58" height="47.2" />
<rect x="0" y="1274.4" width="58" height="47.2" />
<rect x="0" y="1321.6" width="58" height="47.2" />
<rect x="0" y="1368.8" width="58" height="47.2" />
<rect x="0" y="1416.0" width="58" height="47.2" />
<rect x="0" y="1463.2" width="58" height="47.2" />
<rect x="0" y="1510.4" width="58" height="47.2" />
<rect x="0" y="1557.6" width="58" height="47.2" />
<rect x="0" y="1604.8" width="58" height="47.2" />
<rect x="0" y="1652.0" width="58" height="47.2" />
<rect x="0" y="1699.2" width="58" height="47.2" />
<rect x="0" y="1746.4" width="58" height="47.2" />
<rect x="0" y="1793.6" width="58" height="47.2" />
<rect x="0" y="1840.8" width="58" height="47.2" />
<rect x="0" y="1888.0" width="58" height="47.2" />
<rect x="0" y="1935.2" width="58" height="47.2" />
<rect x="0" y="1982.4" width="58" height="47.2" />
<rect x="0" y="2029.6" width="58" height="47.2" />
<rect x="0" y="2076.8" width="58" height="47.2" />
<rect x="0" y="2124.0" width="58" height="47.2" />
<rect x="0" y="2171.2" width="58" height="47.2" />
<rect x="0" y="2218.4" width="58" height="47.2" />
<rect x="0" y="2265.6" width="58" height="47.2" />
<rect x="0" y="2312.8" width="58" height="47.2" />
<rect x="0" y="2360.0" width="58" height="47.2" />
<rect x="0" y="2407.2" width="58" height="47.2" />
</g>
<rect x="0" y="2387.9" width="40" height="25.4" />
<rect x="0" y="2304.5" width="40" height="25.4" />
<rect x="0" y="2248.5" width="40" height="25.4" />
<rect x="0" y="2165.1" width="40" height="25.4" />
<rect x="0" y="2111.3" width="40" height="25.4" />
<rect x="0" y="2057.5" width="40" height="25.4" />
<rect x="0" y="1974.1" width="40" height="25.4" />
<rect x="0" y="1918.1" width="40" height="25.4" />
<rect x="0" y="1834.7" width="40" height="25.4" />
<rect x="0" y="1780.9" width="40" height="25.4" />
<rect x="0" y="1727.1" width="40" height="25.4" />
<rect x="0" y="1643.7" width="40" height="25.4" />
<rect x="0" y="1587.7" width="40" height="25.4" />
<rect x="0" y="1504.3" width="40" height="25.4" />
<rect x="0" y="1450.5" width="40" height="25.4" />
<rect x="0" y="1396.7" width="40" height="25.4" />
<rect x="0" y="1313.3" width="40" height="25.4" />
<rect x="0" y="1257.3" width="40" height="25.4" />
<rect x="0" y="1173.9" width="40" height="25.4" />
<rect x="0" y="1120.1" width="40" height="25.4" />
<rect x="0" y="1066.3" width="40" height="25.4" />
<rect x="0" y="982.9" width="40" height="25.4" />
<rect x="0" y="926.9" width="40" height="25.4" />
<rect x="0" y="843.5" width="40" height="25.4" />
<rect x="0" y="789.7" width="40" height="25.4" />
<rect x="0" y="735.9" width="40" height="25.4" />
<rect x="0" y="652.5" width="40" height="25.4" />
<rect x="0" y="596.5" width="40" height="25.4" />
<rect x="0" y="513.1" width="40" height="25.4" />
<rect x="0" y="459.3" width="40" height="25.4" />
<rect x="0" y="405.5" width="40" height="25.4" />
<rect x="0" y="322.1" width="40" height="25.4" />
<rect x="0" y="266.1" width="40" height="25.4" />
<rect x="0" y="182.7" width="40" height="25.4" />
<rect x="0" y="128.9" width="40" height="25.4" />
<rect x="0" y="75.1" width="40" height="25.4" />
</svg>
