<?xml version="1.0" encoding="UTF-8" standalone="no"?>
<svg xmlns="http://www.w3.org/2000/svg" version="1.1"
  width="60" height="60" viewBox="0 0 60 60">
  <path d="m 30,45 c -10,0 -14,4 -16,6 h 32 c -2,-2 -6,-6 -16,-6 z" style="fill:#aaa;stroke:#000;stroke-width:2.5;stroke-linejoin:round" />
  <rect x="5" y="5" rx="3" ry="3" height="40" width="50" style="fill:#aaa;stroke:#000;stroke-width:3" />
  <path d="m 7.5,35 h 14.5 c 18,0 0,-20 18,-20" style="fill:none;stroke:#fff;stroke-width:3" />
  <rect x="41" y="9" rx="1" ry="1" height="10" width="10" style="fill:#fff" />
  <rect x="41" y="20" rx="1" ry="1" height="10" width="10" style="fill:#fff" />
  <rect x="41" y="31" rx="1" ry="1" height="10" width="10" style="fill:#fff" />
  <rect x="41" y="15" rx="1" ry="1" height="9" width="6" />
  <rect x="41" y="26" rx="1" ry="1" height="9" width="6" />
</svg>
